<svg id="Icon_ionic-logo-designernews" data-name="Icon ionic-logo-designernews" xmlns="http://www.w3.org/2000/svg" width="108.544" height="77.531" viewBox="0 0 108.544 77.531">
  <path id="Path_224215" data-name="Path 224215" d="M31.322,18.622,15.961,6.75,31.37,31.512Z" transform="translate(31.284 -6.75)" fill="#c9c9c9"/>
  <path id="Path_224216" data-name="Path 224216" d="M74.209,6.75V46.242H65.39L50.077,22.353l.412,23.889H40.773V20.318l-9.037-7.1c.242.291.485.581.7.9a20.275,20.275,0,0,1,3.634,12.235c0,11.92-7.414,19.892-18.632,19.892H2.25v.1L50.61,84.281h60.184V35.364Z" transform="translate(-2.25 -6.75)" fill="#c9c9c9"/>
  <path id="Path_224217" data-name="Path 224217" d="M19.263,20.279c0-7.026-3.44-10.927-9.619-10.927H4.992V30.915H9.6C15.9,30.915,19.263,27.184,19.263,20.279Z" transform="translate(4.457 -0.387)" fill="#c9c9c9"/>
</svg>
