<svg id="Icon_ionic-logo-foursquare" data-name="Icon ionic-logo-foursquare" xmlns="http://www.w3.org/2000/svg" width="55.377" height="77.527" viewBox="0 0 55.377 77.527">
  <path id="Icon_ionic-logo-foursquare-2" data-name="Icon ionic-logo-foursquare" d="M55.337,2.25H14.112C8.423,2.25,6.75,6.541,6.75,9.244v65.7c0,3.044,1.631,4.173,2.547,4.546a4.674,4.674,0,0,0,4.962-1.067s19.463-22.652,19.8-22.987c.505-.507.505-.507,1.011-.507H47.66c5.291,0,6.142-3.784,6.694-6.014.46-1.867,5.622-28.374,7.346-36.784C63.017,5.71,61.39,2.25,55.337,2.25Zm-.983,46.661c.46-1.867,5.622-28.374,7.346-36.784m-8.8,1.314-1.73,8.953A2.89,2.89,0,0,1,48.6,24.4H32a2.808,2.808,0,0,0-3.1,2.873V29.6a2.987,2.987,0,0,0,3.109,3.1H46.173a2.443,2.443,0,0,1,2.252,2.77c-.277,1.368-1.572,8.059-1.728,8.807A2.672,2.672,0,0,1,44.17,46.3H33.048c-2.026,0-2.638.265-3.993,1.954S15.512,64.626,15.512,64.626c-.123.142-.244.1-.244-.054V13.307a2.58,2.58,0,0,1,2.506-2.513H50.857A2.149,2.149,0,0,1,52.9,13.441Z" transform="translate(-6.75 -2.25)" fill="#c9c9c9"/>
</svg>
