<svg id="Icon_ionic-logo-ionic" data-name="Icon ionic-logo-ionic" xmlns="http://www.w3.org/2000/svg" width="77.527" height="77.527" viewBox="0 0 77.527 77.527">
  <path id="Path_224218" data-name="Path 224218" d="M29,11.334A17.667,17.667,0,1,0,46.669,29,17.681,17.681,0,0,0,29,11.334Z" transform="translate(9.763 9.762)" fill="#c9c9c9"/>
  <path id="Path_224219" data-name="Path 224219" d="M40.634,13.9A8.051,8.051,0,1,1,32.583,5.85,8.051,8.051,0,0,1,40.634,13.9Z" transform="translate(31.545 0.709)" fill="#c9c9c9"/>
  <path id="Path_224220" data-name="Path 224220" d="M77.417,26.074l-.335-.745-.54.615a12.178,12.178,0,0,1-4.864,3.336l-.522.186.2.5A31.653,31.653,0,1,1,55.706,13.532l.5.242.224-.5a12.128,12.128,0,0,1,3.578-4.7l.634-.5L59.918,7.7A38.362,38.362,0,0,0,42.139,3.375a38.762,38.762,0,1,0,35.279,22.7Z" transform="translate(-3.375 -3.375)" fill="#c9c9c9"/>
</svg>
