<svg id="Icon_ionic-logo-bitbucket" data-name="Icon ionic-logo-bitbucket" xmlns="http://www.w3.org/2000/svg" width="84.001" height="77.53" viewBox="0 0 84.001 77.53">
  <path id="Icon_ionic-logo-bitbucket-2" data-name="Icon ionic-logo-bitbucket" d="M85.124,4.541a3.3,3.3,0,0,0-.444-.04H6.1A2.714,2.714,0,0,0,3.375,7.226a1.966,1.966,0,0,0,.04.485L14.843,78.88a3.876,3.876,0,0,0,1.232,2.241h0a3.527,3.527,0,0,0,2.362.909h54.8a2.7,2.7,0,0,0,2.685-2.322l6.8-42.9H57.484l-3.23,19.382H36.487l-4.5-25.621H83.711L87.345,7.731A2.79,2.79,0,0,0,85.124,4.541Z" transform="translate(-3.375 -4.5)" fill="#c9c9c9"/>
</svg>
